<?xml version="1.0" encoding="UTF-8"?>
<svg xmlns="http://www.w3.org/2000/svg" viewBox="0 0 34 34">
  <defs>
    <linearGradient id="vistoria-gradient" x1="6.1" y1="18.4" x2="27.9" y2="18.4" gradientUnits="userSpaceOnUse">
      <stop offset="0" stop-color="#5e6ef1" />
      <stop offset="1" stop-color="#2cc2ee" />
    </linearGradient>
  </defs>
  <rect x="3.8" y="3.8" width="26.3" height="26.3" rx="3.5" ry="3.5" fill="#0c1324" />
  <g>
    <path d="M6.1,10.8l7.6,14.8c.2.4.7.7,1.2.7h6.9c.5,0,.9-.3,1.2-.7l4.9-9.8c0-.2,0-.4-.2-.4h-7.9c-.4,0-.8.2-.9.6l-3.6,7.6 1.6-8.1-2.5-4.8c-.1-.2-.4-.4-.7-.4h-7.2c-.2,0-.4.2-.3.5Z" fill="url(#vistoria-gradient)" />
    <path d="M26.5,10.9c0,0,0,.1,0,.1-.5.1-1.1.3-1.8.9-.8.7-1.1,1.6-1.2,2.1s-.1,0-.1,0c-.1-.5-.4-1.2-1.1-1.8-.7-.7-1.4-1-1.9-1.2s0-.1,0-.1c.5,0,1.3-.3,2-1,.7-.7.9-1.5,1-2s.1,0,.1,0c.1.5.4,1.2,1.1,1.9.7.6,1.4.9,1.9,1Z" fill="#f2ffff" />
  </g>
</svg>

