<?xml version="1.0" encoding="UTF-8"?>
<svg id="Layer_1" data-name="Layer 1" xmlns="http://www.w3.org/2000/svg" version="1.1" xmlns:xlink="http://www.w3.org/1999/xlink" viewBox="0 0 168 41.3">
  <defs>
    <style>
      .cls-1 {
        fill: url(#linear-gradient);
      }

      .cls-1, .cls-2, .cls-3 {
        stroke-width: 0px;
      }

      .cls-4 {
        isolation: isolate;
      }

      .cls-2 {
        fill: #fff;
      }

      .cls-3 {
        fill: #f2ffff;
      }
    </style>
    <linearGradient id="linear-gradient" x1="2.2" y1="22.5" x2="37.4" y2="22.5" gradientTransform="translate(0 44) scale(1 -1)" gradientUnits="userSpaceOnUse">
      <stop offset="0" stop-color="#5e6ef1"/>
      <stop offset="1" stop-color="#2cc2ee"/>
    </linearGradient>
  </defs>
  <g>
    <path class="cls-1" d="M2.2,9.4l12.2,23.9c.3.7,1,1.1,1.8,1.1h11.2c.8,0,1.5-.5,1.8-1.1l8-15.9c.1-.3,0-.7-.3-.7h-12.7c-.7,0-1.3.3-1.5.9l-5.9,12.3,2.6-13.1-4-7.7c-.2-.3-.6-.7-1-.7H2.7c-.3,0-.6.3-.5.7v.3Z"/>
    <path class="cls-3" d="M35.1,9.6v.2c-.7.1-1.8.6-2.8,1.5-1.3,1.1-1.7,2.6-1.9,3.4s-.2.1-.2,0c-.2-.8-.7-1.9-1.7-3-1-1.1-2.3-1.6-3.1-1.9s0-.2,0-.2c.8-.1,2-.5,3.2-1.6s1.5-2.4,1.7-3.2.2-.1.2,0c.2.8.7,1.9,1.7,3.1,1,1,2.3,1.5,3,1.6h0Z"/>
  </g>
  <g class="cls-4">
    <path class="cls-2" d="M52.4,34.6l-7.1-19.9h3.4l6,17.5h.6l6-17.5h3.4l-7.1,19.9h-5.1Z"/>
    <path class="cls-2" d="M67.7,11.6c-.7,0-1.3-.2-1.8-.7-.5-.5-.7-1-.7-1.8s.2-1.3.7-1.8c.5-.5,1.1-.7,1.8-.7s1.3.2,1.8.7c.5.5.7,1.1.7,1.8s-.2,1.3-.7,1.8-1,.7-1.8.7ZM66.1,34.6V14.7h3.2v19.9h-3.2Z"/>
    <path class="cls-2" d="M80.8,35.2c-2.5,0-4.6-.6-6.3-1.7-1.7-1.1-2.7-2.9-3.1-5.4l3.1-.7c.2,1.3.6,2.3,1.2,3.1.6.7,1.3,1.3,2.2,1.6.9.3,1.8.5,2.8.5,1.5,0,2.7-.3,3.5-.9.9-.6,1.3-1.4,1.3-2.4s-.4-1.8-1.2-2.2c-.8-.4-2-.8-3.4-1l-1.7-.3c-1.3-.2-2.4-.6-3.5-1-1.1-.5-1.9-1.1-2.5-1.9-.6-.8-.9-1.8-.9-3,0-1.8.7-3.2,2.1-4.2,1.4-1,3.2-1.5,5.5-1.5s4.1.5,5.5,1.5c1.4,1,2.3,2.5,2.7,4.3l-3,.8c-.2-1.4-.8-2.5-1.8-3-.9-.6-2.1-.9-3.4-.9s-2.4.3-3.2.8c-.8.5-1.2,1.2-1.2,2.2s.4,1.7,1.1,2.1c.7.4,1.7.8,3,1l1.7.3c1.4.2,2.7.6,3.8,1,1.1.4,2,1,2.7,1.8.7.8,1,1.8,1,3.1,0,2-.7,3.5-2.2,4.5-1.5,1.1-3.4,1.6-5.8,1.6Z"/>
    <path class="cls-2" d="M97.9,34.6c-1.1,0-2-.3-2.6-.9-.6-.6-.9-1.5-.9-2.6v-13.6h-6v-2.8h6v-7.1h3.2v7.1h6.5v2.8h-6.5v13.1c0,.8.4,1.2,1.2,1.2h4.4v2.8h-5.3Z"/>
    <path class="cls-2" d="M114.5,35.2c-2,0-3.8-.4-5.3-1.3-1.5-.8-2.7-2-3.6-3.6-.9-1.5-1.3-3.3-1.3-5.4v-.5c0-2.1.4-3.9,1.3-5.4s2.1-2.7,3.6-3.6c1.5-.8,3.3-1.3,5.3-1.3s3.8.4,5.3,1.3c1.5.8,2.7,2,3.6,3.6s1.3,3.4,1.3,5.4v.5c0,2.1-.4,3.9-1.3,5.4-.9,1.5-2.1,2.7-3.6,3.6-1.5.8-3.3,1.3-5.3,1.3ZM114.5,32.3c2.1,0,3.8-.7,5.1-2s1.9-3.2,1.9-5.4v-.4c0-2.3-.6-4.1-1.9-5.4s-3-2-5.1-2-3.8.7-5.1,2-1.9,3.2-1.9,5.4v.4c0,2.3.6,4.1,1.9,5.4s3,2,5.1,2Z"/>
    <path class="cls-2" d="M127.2,34.6V14.7h3.1v2.4h.6c.4-.9.9-1.5,1.6-1.9.7-.4,1.7-.6,2.9-.6h2.4v2.9h-2.6c-1.4,0-2.6.4-3.5,1.2-.9.8-1.3,2-1.3,3.7v12.1h-3.2Z"/>
    <path class="cls-2" d="M141,11.6c-.7,0-1.3-.2-1.8-.7-.5-.5-.7-1-.7-1.8s.2-1.3.7-1.8c.5-.5,1.1-.7,1.8-.7s1.3.2,1.8.7c.5.5.7,1.1.7,1.8s-.2,1.3-.7,1.8-1,.7-1.8.7ZM139.3,34.6V14.7h3.2v19.9h-3.2Z"/>
    <path class="cls-2" d="M152.2,35.2c-1.4,0-2.6-.2-3.8-.7-1.1-.5-2-1.2-2.7-2.1-.7-.9-1-2.1-1-3.4s.3-2.5,1-3.4,1.5-1.5,2.7-2c1.1-.4,2.4-.7,3.8-.7h6.7v-1.5c0-1.4-.4-2.5-1.2-3.3-.8-.8-2.1-1.2-3.7-1.2s-2.9.4-3.7,1.2c-.9.8-1.5,1.8-1.8,3.1l-3-1c.3-1.1.8-2.1,1.5-3,.7-.9,1.7-1.6,2.8-2.2s2.6-.8,4.3-.8c2.6,0,4.5.7,5.9,2,1.4,1.3,2.1,3.2,2.1,5.6v9c0,.8.4,1.2,1.1,1.2h1.8v2.7h-2.8c-.9,0-1.6-.3-2.2-.8s-.8-1.2-.8-2v-.2h-.5c-.3.5-.7,1.1-1.2,1.6-.5.6-1.2,1-2.1,1.4-.9.4-2,.6-3.4.6ZM152.5,32.4c1.9,0,3.4-.6,4.6-1.7,1.2-1.1,1.8-2.7,1.8-4.7v-.4h-6.6c-1.3,0-2.3.3-3.2.8-.8.6-1.2,1.4-1.2,2.5s.4,2,1.3,2.6c.9.6,2,.9,3.3.9Z"/>
  </g>
</svg>