<?xml version="1.0" encoding="UTF-8"?>
<svg id="Layer_1" data-name="Layer 1" xmlns="http://www.w3.org/2000/svg" version="1.1" xmlns:xlink="http://www.w3.org/1999/xlink" viewBox="0 0 38.1 38.1">
  <defs>
    <style>
      .cls-1 {
        fill: url(#linear-gradient);
      }

      .cls-1, .cls-2, .cls-3 {
        stroke-width: 0px;
      }

      .cls-2 {
        fill: #0c1324;
      }

      .cls-3 {
        fill: #f2ffff;
      }
    </style>
    <linearGradient id="linear-gradient" x1="4.8" y1="19.3" x2="33.3" y2="19.3" gradientTransform="translate(0 40.1) scale(1 -1)" gradientUnits="userSpaceOnUse">
      <stop offset="0" stop-color="#5e6ef1"/>
      <stop offset="1" stop-color="#2cc2ee"/>
    </linearGradient>
  </defs>
  <rect class="cls-2" width="38" height="38" rx="5.1" ry="5.1"/>
  <g>
    <path class="cls-1" d="M4.8,10.9l9.9,19.4c.3.5.9.9,1.6.9h9c.7,0,1.2-.4,1.6-.9l6.4-12.8c0-.3,0-.5-.3-.5h-10.3c-.5,0-1,.3-1.2.8l-4.7,9.9,2.1-10.6-3.3-6.3c-.1-.3-.5-.5-.9-.5H5.3c-.3,0-.5.3-.4.7h-.1Z"/>
    <path class="cls-3" d="M31.5,11.1h0c-.7.3-1.4.5-2.4,1.3-1,.9-1.4,2.1-1.6,2.7s-.1,0-.1,0c-.1-.7-.5-1.6-1.4-2.4-.9-.9-1.8-1.3-2.5-1.6s0-.1,0-.1c.7,0,1.7-.4,2.6-1.3s1.2-2,1.3-2.6.1,0,.1,0c.1.7.5,1.6,1.4,2.5.9.8,1.8,1.2,2.5,1.3h0Z"/>
  </g>
</svg>